# xmcd
#
# Track frame offsets:
#	150
#	14242
#	29298
#	48767
#	68367
#	83905
#	98854
#	114155
#	130110
#	152458
#	171261
#	187883
#
# Disc length: 2699 seconds
#
# Revision: 1
# Processed by: cddbd v1.5.2PL0 Copyright (c) Steve Scherf et al.
# Submitted via: audiograbber 1.83.01
#
DISCID=890a890c
DTITLE=CamareL - CarmareL
DYEAR=2013
DGENRE=
TTITLE0=good for nothing
TTITLE1=perish
TTITLE2=rain
TTITLE3=we're going down
TTITLE4=april
TTITLE5=valentine
TTITLE6=make me wake up
TTITLE7=sparks will fly
TTITLE8=your way
TTITLE9=over you
TTITLE10=room 11
TTITLE11=dream come true
EXTD=
EXTT0=
EXTT1=
EXTT2=
EXTT3=
EXTT4=
EXTT5=
EXTT6=
EXTT7=
EXTT8=
EXTT9=
EXTT10=
EXTT11=
PLAYORDER=
